<svg width="21" height="22" viewBox="0 0 21 22" fill="none" xmlns="http://www.w3.org/2000/svg">
<path d="M12.1755 3.87031C12.1766 2.74484 9.67307 1.83325 6.58832 1.83325C3.50357 1.83325 1.00224 2.74585 1 3.87031M1 3.87031C1 4.99578 3.50133 5.90737 6.58832 5.90737C9.6753 5.90737 12.1766 4.99578 12.1766 3.87031L12.1766 11.774M1 3.87031V16.0926C1.00112 17.2181 3.50245 18.1296 6.58832 18.1296C8.08487 18.1296 9.43612 17.9127 10.4387 17.5633M1.00112 7.94441C1.00112 9.06988 3.50245 9.98147 6.58944 9.98147C9.67643 9.98147 12.1778 9.06988 12.1778 7.94441M10.5057 13.47C9.4976 13.8316 8.11505 14.0556 6.58832 14.0556C3.50245 14.0556 1.00112 13.1441 1.00112 12.0186M18.5272 12.3425C20.4909 14.1321 20.4909 17.0349 18.5272 18.8244C16.5635 20.614 13.3781 20.614 11.4144 18.8244C9.45065 17.0349 9.45065 14.1321 11.4144 12.3425C13.3781 10.5529 16.5635 10.5529 18.5272 12.3425Z" stroke="#F4F4F4" stroke-width="2" stroke-linecap="round" stroke-linejoin="round"/>
</svg>
