<svg width="24" height="22" viewBox="0 0 24 22" fill="none" xmlns="http://www.w3.org/2000/svg">
<g id="coin-stack">
<path id="Icon" d="M14.1755 3.87037C14.1766 2.7449 11.6731 1.83331 8.58832 1.83331C5.50357 1.83331 3.00224 2.74592 3 3.87037M3 3.87037C3 4.99585 5.50133 5.90743 8.58832 5.90743C11.6753 5.90743 14.1766 4.99585 14.1766 3.87037L14.1766 11.7741M3 3.87037V16.0926C3.00112 17.2181 5.50245 18.1297 8.58832 18.1297C10.0849 18.1297 11.4361 17.9128 12.4387 17.5634M3.00112 7.94447C3.00112 9.06995 5.50245 9.98153 8.58944 9.98153C11.6764 9.98153 14.1778 9.06995 14.1778 7.94447M12.5057 13.47C11.4976 13.8316 10.115 14.0557 8.58832 14.0557C5.50245 14.0557 3.00112 13.1441 3.00112 12.0186M20.5272 12.3426C22.4909 14.1321 22.4909 17.0349 20.5272 18.8245C18.5635 20.614 15.3781 20.614 13.4144 18.8245C11.4507 17.0349 11.4507 14.1321 13.4144 12.3426C15.3781 10.553 18.5635 10.553 20.5272 12.3426Z" stroke="#0D0D0D" stroke-width="2" stroke-linecap="round" stroke-linejoin="round"/>
</g>
</svg>
