<svg width="18" height="19" viewBox="0 0 18 19" fill="none" xmlns="http://www.w3.org/2000/svg">
<path d="M1.47656 4.33333H3.14323M3.14323 4.33333H16.4766M3.14323 4.33333V16C3.14323 16.442 3.31882 16.866 3.63138 17.1785C3.94395 17.4911 4.36787 17.6667 4.8099 17.6667H13.1432C13.5853 17.6667 14.0092 17.4911 14.3217 17.1785C14.6343 16.866 14.8099 16.442 14.8099 16V4.33333H3.14323ZM5.64323 4.33333V2.66667C5.64323 2.22464 5.81882 1.80072 6.13138 1.48816C6.44395 1.17559 6.86787 1 7.3099 1H10.6432C11.0853 1 11.5092 1.17559 11.8217 1.48816C12.1343 1.80072 12.3099 2.22464 12.3099 2.66667V4.33333M7.3099 8.5V13.5M10.6432 8.5V13.5" stroke="#667085" stroke-width="1.66667" stroke-linecap="round" stroke-linejoin="round"/>
</svg>
