<svg width="19" height="19" viewBox="0 0 19 19" fill="none" xmlns="http://www.w3.org/2000/svg">
<path d="M13.9766 1.76186C14.1954 1.54299 14.4553 1.36937 14.7412 1.25092C15.0272 1.13247 15.3337 1.0715 15.6432 1.0715C15.9528 1.0715 16.2593 1.13247 16.5452 1.25092C16.8312 1.36937 17.091 1.54299 17.3099 1.76186C17.5288 1.98073 17.7024 2.24056 17.8208 2.52653C17.9393 2.8125 18.0003 3.119 18.0003 3.42852C18.0003 3.73805 17.9393 4.04455 17.8208 4.33052C17.7024 4.61649 17.5288 4.87632 17.3099 5.09519L6.0599 16.3452L1.47656 17.5952L2.72656 13.0119L13.9766 1.76186Z" stroke="#667085" stroke-width="1.66667" stroke-linecap="round" stroke-linejoin="round"/>
</svg>
