<svg width="16" height="16" viewBox="0 0 16 16" fill="none" xmlns="http://www.w3.org/2000/svg">
<g clip-path="url(#clip0_2076_4968)">
<path fill-rule="evenodd" clip-rule="evenodd" d="M3.50065 6.20201V5.33334C3.50065 4.13987 3.97476 2.99528 4.81867 2.15136C5.66258 1.30745 6.80718 0.833344 8.00065 0.833344C9.19413 0.833344 10.3387 1.30745 11.1826 2.15136C12.0265 2.99528 12.5007 4.13987 12.5007 5.33334V6.20201C12.652 6.21268 12.794 6.22601 12.9287 6.24468C13.5287 6.32468 14.034 6.49801 14.4353 6.89868C14.8367 7.30001 15.0087 7.80534 15.09 8.40534C15.1673 8.98334 15.1673 9.71868 15.1673 10.63V10.7033C15.1673 11.6147 15.1673 12.35 15.09 12.928C15.0087 13.528 14.8367 14.0333 14.4353 14.4347C14.034 14.836 13.5287 15.008 12.9287 15.0893C12.3507 15.1667 11.6153 15.1667 10.704 15.1667H5.29732C4.38598 15.1667 3.65065 15.1667 3.07265 15.0893C2.47265 15.008 1.96732 14.836 1.56598 14.4347C1.16465 14.0333 0.992651 13.528 0.911984 12.928C0.833984 12.35 0.833984 11.6147 0.833984 10.7033V10.63C0.833984 9.71868 0.833984 8.98334 0.911984 8.40534C0.991984 7.80534 1.16532 7.30001 1.56598 6.89868C1.96732 6.49734 2.47265 6.32534 3.07265 6.24468C3.2148 6.22564 3.35754 6.21141 3.50065 6.20201ZM4.50065 5.33334C4.50065 4.40509 4.8694 3.51485 5.52578 2.85847C6.18215 2.20209 7.07239 1.83334 8.00065 1.83334C8.92891 1.83334 9.81915 2.20209 10.4755 2.85847C11.1319 3.51485 11.5007 4.40509 11.5007 5.33334V6.16868C11.252 6.16668 10.986 6.16668 10.704 6.16668H5.29732C5.01532 6.16668 4.74998 6.16668 4.50065 6.16868V5.33334ZM2.27332 7.60601C2.45798 7.42134 2.71665 7.30134 3.20665 7.23534C3.70932 7.16801 4.37732 7.16668 5.33398 7.16668H10.6673C11.624 7.16668 12.2913 7.16801 12.7953 7.23534C13.2846 7.30134 13.5433 7.42201 13.728 7.60601C13.9127 7.79068 14.0326 8.04934 14.0986 8.53934C14.166 9.04268 14.1673 9.71001 14.1673 10.6667C14.1673 11.6233 14.166 12.2907 14.0986 12.7947C14.0326 13.284 13.912 13.5427 13.728 13.7273C13.5433 13.912 13.2846 14.032 12.7947 14.098C12.2913 14.1653 11.624 14.1667 10.6673 14.1667H5.33398C4.37732 14.1667 3.70932 14.1653 3.20598 14.098C2.71665 14.032 2.45798 13.9113 2.27332 13.7273C2.08865 13.5427 1.96865 13.284 1.90265 12.794C1.83532 12.2907 1.83398 11.6233 1.83398 10.6667C1.83398 9.71001 1.83532 9.04201 1.90265 8.53868C1.96865 8.04934 2.08932 7.79068 2.27332 7.60601Z" fill="white"/>
</g>
<defs>
<clipPath id="clip0_2076_4968">
<rect width="16" height="16" fill="white"/>
</clipPath>
</defs>
</svg>
