<svg width="258" height="100" viewBox="0 0 258 100" fill="none" xmlns="http://www.w3.org/2000/svg">
<path d="M43.8796 27L39.3676 15.6H41.6236L44.8876 24.48H44.1676L47.4076 15.6H48.6556L51.8956 24.48H51.1756L54.4396 15.6H56.6956L52.2076 27H50.9356L47.6476 18.384H48.4396L45.1276 27H43.8796ZM63.5674 27.24C62.4314 27.24 61.4074 26.984 60.4954 26.472C59.5834 25.944 58.8634 25.232 58.3354 24.336C57.8074 23.44 57.5434 22.424 57.5434 21.288C57.5434 20.168 57.7994 19.16 58.3114 18.264C58.8394 17.368 59.5434 16.664 60.4234 16.152C61.3194 15.624 62.3194 15.36 63.4234 15.36C64.4794 15.36 65.4074 15.6 66.2074 16.08C67.0234 16.56 67.6554 17.224 68.1034 18.072C68.5674 18.92 68.7994 19.88 68.7994 20.952C68.7994 21.112 68.7914 21.288 68.7754 21.48C68.7594 21.656 68.7274 21.864 68.6794 22.104H59.0554V20.304H67.5274L66.7354 21C66.7354 20.232 66.5994 19.584 66.3274 19.056C66.0554 18.512 65.6714 18.096 65.1754 17.808C64.6794 17.504 64.0794 17.352 63.3754 17.352C62.6394 17.352 61.9914 17.512 61.4314 17.832C60.8714 18.152 60.4394 18.6 60.1354 19.176C59.8314 19.752 59.6794 20.432 59.6794 21.216C59.6794 22.016 59.8394 22.72 60.1594 23.328C60.4794 23.92 60.9354 24.384 61.5274 24.72C62.1194 25.04 62.7994 25.2 63.5674 25.2C64.2074 25.2 64.7914 25.088 65.3194 24.864C65.8634 24.64 66.3274 24.304 66.7114 23.856L68.1034 25.272C67.5594 25.912 66.8874 26.4 66.0874 26.736C65.3034 27.072 64.4634 27.24 63.5674 27.24ZM74.7786 27.24C74.1386 27.24 73.5306 27.16 72.9546 27C72.3946 26.824 71.8746 26.584 71.3946 26.28C70.9146 25.96 70.4986 25.584 70.1466 25.152L71.5386 23.76C71.9546 24.272 72.4346 24.656 72.9786 24.912C73.5226 25.152 74.1306 25.272 74.8026 25.272C75.4746 25.272 75.9946 25.16 76.3626 24.936C76.7306 24.696 76.9146 24.368 76.9146 23.952C76.9146 23.536 76.7626 23.216 76.4586 22.992C76.1706 22.752 75.7946 22.56 75.3306 22.416C74.8666 22.256 74.3706 22.104 73.8426 21.96C73.3306 21.8 72.8426 21.6 72.3786 21.36C71.9146 21.12 71.5306 20.792 71.2266 20.376C70.9386 19.96 70.7946 19.408 70.7946 18.72C70.7946 18.032 70.9626 17.44 71.2986 16.944C71.6346 16.432 72.0986 16.04 72.6906 15.768C73.2986 15.496 74.0266 15.36 74.8746 15.36C75.7706 15.36 76.5626 15.52 77.2506 15.84C77.9546 16.144 78.5306 16.608 78.9786 17.232L77.5866 18.624C77.2666 18.208 76.8666 17.888 76.3866 17.664C75.9226 17.44 75.3946 17.328 74.8026 17.328C74.1786 17.328 73.6986 17.44 73.3626 17.664C73.0426 17.872 72.8826 18.168 72.8826 18.552C72.8826 18.936 73.0266 19.232 73.3146 19.44C73.6026 19.648 73.9786 19.824 74.4426 19.968C74.9226 20.112 75.4186 20.264 75.9306 20.424C76.4426 20.568 76.9306 20.768 77.3946 21.024C77.8586 21.28 78.2346 21.624 78.5226 22.056C78.8266 22.488 78.9786 23.056 78.9786 23.76C78.9786 24.832 78.5946 25.68 77.8266 26.304C77.0746 26.928 76.0586 27.24 74.7786 27.24ZM83.1488 27V10.824H85.3088V27H83.1488ZM80.3408 17.568V15.6H88.1168V17.568H80.3408ZM93.9767 27.096L89.0327 15.6H91.4327L95.1047 24.6H94.3367L98.2007 15.6H100.601L95.2727 27.096H93.9767ZM90.7127 31.776L94.0727 24.888L95.2727 27.096L93.1127 31.776H90.7127Z" fill="#332E2E"/>
<path d="M22.0003 18.25V24.8283C22.0003 25.5369 22.717 26.0207 23.3743 25.7558L26.5495 24.4756C27.2067 24.2106 27.9234 24.6944 27.9234 25.403V29.2263C27.9234 29.8711 28.5247 30.3474 29.1524 30.1998L31.7714 29.5838C32.3991 29.4362 33.0003 29.9124 33.0003 30.5572V38.25" stroke="#8E5DF5" stroke-width="5"/>
<path d="M17.1387 4.13245C12.7894 4.15077 3.87263 6.68096 3 16.6552" stroke="#8E5DF5" stroke-width="5"/>
<path d="M21.0003 3.25C25.3337 3.6558 34.0003 7.02391 34.0003 17.25" stroke="#8E5DF5" stroke-width="5"/>
<path d="M19.0003 35.25C14.667 34.8442 6.00034 31.4761 6.00034 21.25" stroke="#8E5DF5" stroke-width="5"/>
</svg>
