<?xml version="1.0" encoding="UTF-8" standalone="no" ?>
<!DOCTYPE svg PUBLIC "-//W3C//DTD SVG 1.1//EN" "http://www.w3.org/Graphics/SVG/1.1/DTD/svg11.dtd">
<svg xmlns="http://www.w3.org/2000/svg" xmlns:xlink="http://www.w3.org/1999/xlink" version="1.1" width="1080" height="1080" viewBox="0 0 1080 1080" xml:space="preserve">
<desc>Created with Fabric.js 5.2.4</desc>
<defs>
</defs>
<g transform="matrix(1 0 0 1 540 540)" id="63b93e78-0e29-4eb9-99bb-c70bb938c1ae"  >
<rect style="stroke: none; stroke-width: 1; stroke-dasharray: none; stroke-linecap: butt; stroke-dashoffset: 0; stroke-linejoin: miter; stroke-miterlimit: 4; fill: rgb(255,255,255); fill-rule: nonzero; opacity: 1; visibility: hidden;" vector-effect="non-scaling-stroke"  x="-540" y="-540" rx="0" ry="0" width="1080" height="1080" />
</g>
<g transform="matrix(1 0 0 1 540 540)" id="fd8c4dd4-7ea2-4149-8e79-f282552667be"  >
</g>
<g transform="matrix(1.12 0 0 1.16 540 540)"  >
<g style="" vector-effect="non-scaling-stroke"   >
		<g transform="matrix(1 0 0 1 17.08 2.5)"  >
<path style="stroke: none; stroke-width: 1; stroke-dasharray: none; stroke-linecap: butt; stroke-dashoffset: 0; stroke-linejoin: miter; stroke-miterlimit: 4; fill: rgb(51,46,46); fill-rule: nonzero; opacity: 1;" vector-effect="non-scaling-stroke"  transform=" translate(-66.03, -21.3)" d="M 39.9232 27 L 35.4112 15.6 L 37.6672 15.6 L 40.9312 24.48 L 40.2112 24.48 L 43.4512 15.6 L 44.6992 15.6 L 47.9392 24.48 L 47.2192 24.48 L 50.4832 15.6 L 52.7392 15.6 L 48.2512 27 L 46.9792 27 L 43.6912 18.384 L 44.4832 18.384 L 41.1712 27 L 39.9232 27 Z M 59.6111 27.24 C 58.4751 27.24 57.4511 26.984 56.5391 26.472 C 55.6271 25.944 54.9071 25.232 54.3791 24.336 C 53.8511 23.44 53.5871 22.424 53.5871 21.288 C 53.5871 20.168 53.8431 19.16 54.3551 18.264 C 54.8831 17.368 55.5871 16.664 56.4671 16.152 C 57.3631 15.624 58.3631 15.36 59.4671 15.36 C 60.5231 15.36 61.4511 15.6 62.2511 16.08 C 63.0671 16.56 63.6991 17.224 64.1471 18.072 C 64.6111 18.92 64.8431 19.88 64.8431 20.952 C 64.8431 21.112 64.8351 21.288 64.8191 21.48 C 64.8031 21.656 64.7711 21.864 64.7231 22.104 L 55.0991 22.104 L 55.0991 20.304 L 63.5711 20.304 L 62.7791 21 C 62.7791 20.232 62.6431 19.584 62.3711 19.056 C 62.0991 18.512 61.7151 18.096 61.2191 17.808 C 60.7231 17.504 60.1231 17.352 59.4191 17.352 C 58.6831 17.352 58.0351 17.512 57.4751 17.832 C 56.9151 18.152 56.4831 18.6 56.1791 19.176 C 55.8751 19.752 55.7231 20.432 55.7231 21.216 C 55.7231 22.016 55.8831 22.72 56.2031 23.328 C 56.5231 23.92 56.9791 24.384 57.5711 24.72 C 58.1631 25.04 58.8431 25.2 59.6111 25.2 C 60.2511 25.2 60.8351 25.088 61.3631 24.864 C 61.9071 24.64 62.3711 24.304 62.7551 23.856 L 64.1471 25.272 C 63.6031 25.912 62.9311 26.4 62.1311 26.736 C 61.3471 27.072 60.5071 27.24 59.6111 27.24 Z M 70.8223 27.24 C 70.1823 27.24 69.5743 27.16 68.9983 27 C 68.4383 26.824 67.9183 26.584 67.4383 26.28 C 66.9583 25.96 66.5423 25.584 66.1903 25.152 L 67.5823 23.76 C 67.9983 24.272 68.4783 24.656 69.0223 24.912 C 69.5663 25.152 70.1743 25.272 70.8463 25.272 C 71.5183 25.272 72.0383 25.16 72.4063 24.936 C 72.7743 24.696 72.9583 24.368 72.9583 23.952 C 72.9583 23.536 72.8063 23.216 72.5023 22.992 C 72.2143 22.752 71.8383 22.56 71.3743 22.416 C 70.9103 22.256 70.4143 22.104 69.8863 21.96 C 69.3743 21.8 68.8863 21.6 68.4223 21.36 C 67.9583 21.12 67.5743 20.792 67.2703 20.376 C 66.9823 19.96 66.8383 19.408 66.8383 18.72 C 66.8383 18.032 67.0063 17.44 67.3423 16.944 C 67.6783 16.432 68.1423 16.04 68.7343 15.768 C 69.3423 15.496 70.0703 15.36 70.9183 15.36 C 71.8143 15.36 72.6063 15.52 73.2943 15.84 C 73.9983 16.144 74.5743 16.608 75.0223 17.232 L 73.6303 18.624 C 73.3103 18.208 72.9103 17.888 72.4303 17.664 C 71.9663 17.44 71.4383 17.328 70.8463 17.328 C 70.2223 17.328 69.7423 17.44 69.4063 17.664 C 69.0863 17.872 68.9263 18.168 68.9263 18.552 C 68.9263 18.936 69.0703 19.232 69.3583 19.44 C 69.6463 19.648 70.0223 19.824 70.4863 19.968 C 70.9663 20.112 71.4623 20.264 71.9743 20.424 C 72.4863 20.568 72.9743 20.768 73.4383 21.024 C 73.9023 21.28 74.2783 21.624 74.5663 22.056 C 74.8703 22.488 75.0223 23.056 75.0223 23.76 C 75.0223 24.832 74.6383 25.68 73.8703 26.304 C 73.1183 26.928 72.1023 27.24 70.8223 27.24 Z M 79.1924 27 L 79.1924 10.824 L 81.3524 10.824 L 81.3524 27 L 79.1924 27 Z M 76.3844 17.568 L 76.3844 15.6 L 84.1604 15.6 L 84.1604 17.568 L 76.3844 17.568 Z M 90.0204 27.096 L 85.0764 15.6 L 87.4764 15.6 L 91.1484 24.6 L 90.3804 24.6 L 94.2444 15.6 L 96.6444 15.6 L 91.3164 27.096 L 90.0204 27.096 Z M 86.7564 31.776 L 90.1164 24.888 L 91.3164 27.096 L 89.1564 31.776 L 86.7564 31.776 Z" stroke-linecap="round" />
</g>
		<g transform="matrix(1 0 0 1 -24.14 6.68)"  >
<path style="stroke: rgb(142,93,245); stroke-width: 4.5; stroke-dasharray: none; stroke-linecap: butt; stroke-dashoffset: 0; stroke-linejoin: miter; stroke-miterlimit: 4; fill: none; fill-rule: nonzero; opacity: 1;" vector-effect="non-scaling-stroke"  transform=" translate(-24.81, -25.48)" d="M 19.9141 16.5757 L 19.9141 22.269 C 19.9141 22.9776 20.6308 23.4614 21.288 23.1964 L 23.8128 22.1785 C 24.47 21.9135 25.1868 22.3973 25.1868 23.1059 L 25.1868 26.2081 C 25.1868 26.8529 25.788 27.3292 26.4157 27.1816 L 28.4773 26.6967 C 29.1049 26.5491 29.7062 27.0253 29.7062 27.6702 L 29.7062 34.3796" stroke-linecap="round" />
</g>
		<g transform="matrix(1 0 0 1 -39.65 -9.22)"  >
<path style="stroke: rgb(142,93,245); stroke-width: 4.5; stroke-dasharray: none; stroke-linecap: butt; stroke-dashoffset: 0; stroke-linejoin: miter; stroke-miterlimit: 4; fill: none; fill-rule: nonzero; opacity: 1;" vector-effect="non-scaling-stroke"  transform=" translate(-9.29, -9.58)" d="M 15.5861 4.0081 C 11.7144 4.02441 3.7768 6.27677 2.99998 15.1558" stroke-linecap="round" />
</g>
		<g transform="matrix(1 0 0 1 -24.14 -9.35)"  >
<path style="stroke: rgb(142,93,245); stroke-width: 4.5; stroke-dasharray: none; stroke-linecap: butt; stroke-dashoffset: 0; stroke-linejoin: miter; stroke-miterlimit: 4; fill: none; fill-rule: nonzero; opacity: 1;" vector-effect="non-scaling-stroke"  transform=" translate(-24.81, -9.45)" d="M 19.0241 3.22278 C 22.8817 3.58402 30.5967 6.5823 30.5967 15.6855" stroke-linecap="round" />
</g>
		<g transform="matrix(1 0 0 1 -37.49 6.68)"  >
<path style="stroke: rgb(142,93,245); stroke-width: 4.5; stroke-dasharray: none; stroke-linecap: butt; stroke-dashoffset: 0; stroke-linejoin: miter; stroke-miterlimit: 4; fill: none; fill-rule: nonzero; opacity: 1;" vector-effect="non-scaling-stroke"  transform=" translate(-11.46, -25.48)" d="M 17.2434 31.709 C 13.3859 31.3477 5.6709 28.3495 5.6709 19.2463" stroke-linecap="round" />
</g>
</g>
</g>
</svg>