<svg width="49" height="41" viewBox="0 0 49 41" fill="none" xmlns="http://www.w3.org/2000/svg">
<rect opacity="0.1" width="49" height="41" rx="5" fill="#009BDD"/>
<path d="M34.8485 13.6172C35.1602 11.5852 34.8485 10.2305 33.7576 8.97996C32.5629 7.57315 30.3813 7 27.5762 7H19.5248C18.9535 7 18.4859 7.41683 18.3821 7.98998L15.0057 29.3527C14.9537 29.7695 15.2654 30.1343 15.6809 30.1343H20.6676L20.304 32.3226C20.2521 32.6874 20.5118 33 20.9273 33H25.1349C25.6543 33 26.0699 32.6353 26.1218 32.1663L27.0049 26.6433C27.0568 26.1743 27.5243 25.8096 27.9918 25.8096H28.6151C32.6668 25.8096 35.8874 24.1423 36.8224 19.3487C37.186 17.3687 37.0302 15.6493 35.9913 14.503C35.6796 14.1383 35.316 13.8778 34.8485 13.6172Z" fill="#009CDE"/>
<path d="M34.8485 13.6172C35.1601 11.5852 34.8485 10.2305 33.7576 8.97996C32.5629 7.57315 30.3813 7 27.5762 7H19.5248C18.9534 7 18.4859 7.41683 18.3821 7.98998L15.0057 29.3527C14.9537 29.7695 15.2654 30.1343 15.6809 30.1343H20.6676L21.8623 22.4228C21.9662 21.8497 22.4337 21.4329 23.0051 21.4329H25.3946C30.0696 21.4329 33.7057 19.5571 34.7446 14.0341C34.7965 13.9299 34.7965 13.7735 34.8485 13.6172Z" fill="#012169"/>
<path d="M23.2648 13.6693C23.3168 13.3046 23.7843 12.8357 24.2518 12.8357H30.589C31.3163 12.8357 32.0435 12.8878 32.6668 12.992C33.2382 13.0962 34.2771 13.3567 34.7965 13.6693C35.1082 11.6373 34.7965 10.2826 33.7057 9.03206C32.5629 7.57315 30.3813 7 27.5762 7H19.5248C18.9534 7 18.4859 7.41683 18.3821 7.98998L15.0057 29.3527C14.9537 29.7695 15.2654 30.1343 15.6809 30.1343H20.6676L23.2648 13.6693Z" fill="#003087"/>
</svg>
