<svg width="24" height="22" viewBox="0 0 24 22" fill="none" xmlns="http://www.w3.org/2000/svg">
<g id="settings" clip-path="url(#clip0_1119_4986)">
<g id="Icon">
<path d="M12 13.75C13.6569 13.75 15 12.5188 15 11C15 9.48124 13.6569 8.25002 12 8.25002C10.3431 8.25002 9 9.48124 9 11C9 12.5188 10.3431 13.75 12 13.75Z" stroke="#0D0D0D" stroke-width="2" stroke-linecap="round" stroke-linejoin="round"/>
<path d="M19.4 13.75C19.2669 14.0265 19.2272 14.3332 19.286 14.6306C19.3448 14.9279 19.4995 15.2023 19.73 15.4184L19.79 15.4734C19.976 15.6436 20.1235 15.8458 20.2241 16.0684C20.3248 16.2909 20.3766 16.5295 20.3766 16.7704C20.3766 17.0114 20.3248 17.2499 20.2241 17.4725C20.1235 17.6951 19.976 17.8973 19.79 18.0675C19.6043 18.238 19.3837 18.3732 19.1409 18.4655C18.8981 18.5577 18.6378 18.6052 18.375 18.6052C18.1122 18.6052 17.8519 18.5577 17.6091 18.4655C17.3663 18.3732 17.1457 18.238 16.96 18.0675L16.9 18.0125C16.6643 17.8012 16.365 17.6594 16.0406 17.6055C15.7162 17.5516 15.3816 17.588 15.08 17.71C14.7842 17.8262 14.532 18.0192 14.3543 18.2651C14.1766 18.511 14.0813 18.7992 14.08 19.0942V19.25C14.08 19.7363 13.8693 20.2026 13.4942 20.5464C13.1191 20.8902 12.6104 21.0834 12.08 21.0834C11.5496 21.0834 11.0409 20.8902 10.6658 20.5464C10.2907 20.2026 10.08 19.7363 10.08 19.25V19.1675C10.0723 18.8641 9.96512 18.5699 9.77251 18.323C9.5799 18.0761 9.31074 17.8881 9 17.7834C8.69838 17.6613 8.36381 17.6249 8.03941 17.6789C7.71502 17.7328 7.41568 17.8745 7.18 18.0859L7.12 18.1409C6.93425 18.3113 6.71368 18.4465 6.47088 18.5388C6.22808 18.6311 5.96783 18.6785 5.705 18.6785C5.44217 18.6785 5.18192 18.6311 4.93912 18.5388C4.69632 18.4465 4.47575 18.3113 4.29 18.1409C4.10405 17.9706 3.95653 17.7684 3.85588 17.5458C3.75523 17.3233 3.70343 17.0847 3.70343 16.8438C3.70343 16.6028 3.75523 16.3643 3.85588 16.1417C3.95653 15.9192 4.10405 15.717 4.29 15.5467L4.35 15.4917C4.58054 15.2756 4.73519 15.0013 4.794 14.7039C4.85282 14.4065 4.81312 14.0998 4.68 13.8234C4.55324 13.5522 4.34276 13.321 4.07447 13.1581C3.80618 12.9953 3.49179 12.9079 3.17 12.9067H3C2.46957 12.9067 1.96086 12.7135 1.58579 12.3697C1.21071 12.0259 1 11.5596 1 11.0734C1 10.5871 1.21071 10.1208 1.58579 9.77699C1.96086 9.43318 2.46957 9.24002 3 9.24002H3.09C3.42099 9.23292 3.742 9.13471 4.0113 8.95816C4.28059 8.7816 4.48572 8.53486 4.6 8.25002C4.73312 7.97354 4.77282 7.66684 4.714 7.36948C4.65519 7.07212 4.50054 6.79773 4.27 6.58169L4.21 6.52669C4.02405 6.35642 3.87653 6.15422 3.77588 5.93166C3.67523 5.7091 3.62343 5.47053 3.62343 5.2296C3.62343 4.98868 3.67523 4.75011 3.77588 4.52755C3.87653 4.30498 4.02405 4.10279 4.21 3.93252C4.39575 3.76206 4.61632 3.62684 4.85912 3.53458C5.10192 3.44232 5.36217 3.39483 5.625 3.39483C5.88783 3.39483 6.14808 3.44232 6.39088 3.53458C6.63368 3.62684 6.85425 3.76206 7.04 3.93252L7.1 3.98752C7.33568 4.19885 7.63502 4.34061 7.95941 4.39452C8.28381 4.44844 8.61838 4.41204 8.92 4.29002H9C9.29577 4.17382 9.54802 3.98088 9.72569 3.73495C9.90337 3.48901 9.99872 3.20082 10 2.90585V2.75002C10 2.26379 10.2107 1.79747 10.5858 1.45366C10.9609 1.10984 11.4696 0.916687 12 0.916687C12.5304 0.916687 13.0391 1.10984 13.4142 1.45366C13.7893 1.79747 14 2.26379 14 2.75002V2.83252C14.0013 3.12749 14.0966 3.41568 14.2743 3.66161C14.452 3.90755 14.7042 4.10049 15 4.21669C15.3016 4.33871 15.6362 4.37511 15.9606 4.32119C16.285 4.26727 16.5843 4.12551 16.82 3.91419L16.88 3.85919C17.0657 3.68873 17.2863 3.55351 17.5291 3.46124C17.7719 3.36898 18.0322 3.3215 18.295 3.3215C18.5578 3.3215 18.8181 3.36898 19.0609 3.46124C19.3037 3.55351 19.5243 3.68873 19.71 3.85919C19.896 4.02945 20.0435 4.23165 20.1441 4.45421C20.2448 4.67678 20.2966 4.91534 20.2966 5.15627C20.2966 5.3972 20.2448 5.63576 20.1441 5.85833C20.0435 6.08089 19.896 6.28309 19.71 6.45335L19.65 6.50835C19.4195 6.72439 19.2648 6.99879 19.206 7.29615C19.1472 7.59351 19.1869 7.90021 19.32 8.17669V8.25002C19.4468 8.52114 19.6572 8.75237 19.9255 8.91524C20.1938 9.07811 20.5082 9.16551 20.83 9.16669H21C21.5304 9.16669 22.0391 9.35984 22.4142 9.70366C22.7893 10.0475 23 10.5138 23 11C23 11.4863 22.7893 11.9526 22.4142 12.2964C22.0391 12.6402 21.5304 12.8334 21 12.8334H20.91C20.5882 12.8345 20.2738 12.9219 20.0055 13.0848C19.7372 13.2477 19.5268 13.4789 19.4 13.75Z" stroke="#0D0D0D" stroke-width="2" stroke-linecap="round" stroke-linejoin="round"/>
</g>
</g>
<defs>
<clipPath id="clip0_1119_4986">
<rect width="24" height="22" fill="white"/>
</clipPath>
</defs>
</svg>
