<svg width="24" height="24" viewBox="0 0 24 24" fill="none" xmlns="http://www.w3.org/2000/svg">
<path d="M22.4258 9.12093C22.335 8.84098 22.1638 8.59394 21.9336 8.41057C21.7034 8.2272 21.4243 8.1156 21.1311 8.08968L15.5633 7.60968L13.3808 2.41968C13.2672 2.14735 13.0755 1.91473 12.8299 1.75111C12.5844 1.58749 12.2959 1.50018 12.0008 1.50018C11.7057 1.50018 11.4172 1.58749 11.1717 1.75111C10.9261 1.91473 10.7344 2.14735 10.6208 2.41968L8.44486 7.60968L2.87049 8.0925C2.57615 8.11723 2.29566 8.22832 2.0642 8.41182C1.83274 8.59533 1.66061 8.84309 1.5694 9.12404C1.47819 9.40498 1.47195 9.7066 1.55148 9.99107C1.631 10.2755 1.79275 10.5302 2.01643 10.7231L6.24549 14.4187L4.97799 19.9069C4.91097 20.1941 4.93009 20.4947 5.03297 20.771C5.13585 21.0474 5.31792 21.2874 5.55642 21.4608C5.79492 21.6343 6.07926 21.7336 6.3739 21.7464C6.66854 21.7591 6.9604 21.6847 7.21299 21.5325L11.9942 18.6262L16.7858 21.5325C17.0384 21.6847 17.3303 21.7591 17.6249 21.7464C17.9195 21.7336 18.2039 21.6343 18.4424 21.4608C18.6809 21.2874 18.8629 21.0474 18.9658 20.771C19.0687 20.4947 19.0878 20.1941 19.0208 19.9069L17.7542 14.4131L21.9824 10.7231C22.206 10.5295 22.3674 10.2742 22.4463 9.98908C22.5252 9.704 22.5181 9.40196 22.4258 9.12093ZM20.9989 9.58968L16.7708 13.2797C16.565 13.4587 16.4119 13.6904 16.328 13.9499C16.2441 14.2094 16.2325 14.4869 16.2946 14.7525L17.5649 20.25L12.7771 17.3437C12.5435 17.2015 12.2752 17.1262 12.0017 17.1262C11.7282 17.1262 11.46 17.2015 11.2264 17.3437L6.44518 20.25L7.70705 14.7562C7.76907 14.4906 7.7575 14.2132 7.67358 13.9537C7.58967 13.6942 7.43658 13.4624 7.2308 13.2834L3.0008 9.59531C3.00046 9.59251 3.00046 9.58967 3.0008 9.58687L8.5733 9.105C8.84537 9.08102 9.10572 8.98321 9.32628 8.82213C9.54684 8.66104 9.71923 8.4428 9.82486 8.19093L12.0008 3.0075L14.1758 8.19093C14.2814 8.4428 14.4538 8.66104 14.6744 8.82213C14.8949 8.98321 15.1553 9.08102 15.4274 9.105L21.0008 9.58687V9.59343L20.9989 9.58968Z" fill="#FFEB13"/>
</svg>
