<svg width="48" height="49" viewBox="0 0 48 49" fill="none" xmlns="http://www.w3.org/2000/svg">
<rect y="0.5" width="48" height="48" rx="8" fill="#E3E3FF"/>
<g clip-path="url(#clip0_2799_3792)">
<path fill-rule="evenodd" clip-rule="evenodd" d="M33 24.5C33 24.9142 32.6642 25.25 32.25 25.25H21.75C21.3358 25.25 21 24.9142 21 24.5C21 24.0858 21.3358 23.75 21.75 23.75H32.25C32.6642 23.75 33 24.0858 33 24.5ZM21.75 19.25H32.25C32.6642 19.25 33 18.9142 33 18.5C33 18.0858 32.6642 17.75 32.25 17.75H21.75C21.3358 17.75 21 18.0858 21 18.5C21 18.9142 21.3358 19.25 21.75 19.25ZM32.25 29.75H21.75C21.3358 29.75 21 30.0858 21 30.5C21 30.9142 21.3358 31.25 21.75 31.25H32.25C32.6642 31.25 33 30.9142 33 30.5C33 30.0858 32.6642 29.75 32.25 29.75ZM16.0856 17.6712L16.5 17.4631V22.25C16.5 22.6642 16.8358 23 17.25 23C17.6642 23 18 22.6642 18 22.25V16.25C18.0002 15.9899 17.8656 15.7483 17.6444 15.6116C17.4232 15.4748 17.147 15.4624 16.9144 15.5787L15.4144 16.3287C15.0437 16.5141 14.8934 16.9649 15.0787 17.3356C15.2641 17.7063 15.7149 17.8566 16.0856 17.6712ZM19.4784 27.1925C19.3946 26.5923 19.0696 26.0522 18.5784 25.6972C17.5668 24.9626 16.1559 25.157 15.3806 26.1378C15.238 26.3209 15.1251 26.5253 15.0459 26.7434C14.9333 26.9993 14.9724 27.2966 15.1473 27.5148C15.3222 27.7329 15.6039 27.8356 15.8781 27.7813C16.1524 27.727 16.3737 27.5246 16.4522 27.2563C16.4784 27.1843 16.5158 27.117 16.5628 27.0566C16.8377 26.7141 17.3333 26.6484 17.6878 26.9075C17.8537 27.0249 17.9642 27.2051 17.9934 27.4062C18.0202 27.5994 17.967 27.7951 17.8463 27.9481C17.8435 27.9514 17.841 27.9548 17.8387 27.9584L15.1491 31.5509C14.9791 31.7783 14.9521 32.0822 15.0793 32.336C15.2065 32.5899 15.4661 32.7501 15.75 32.75H18.75C19.1642 32.75 19.5 32.4142 19.5 32C19.5 31.5858 19.1642 31.25 18.75 31.25H17.25L19.0388 28.8566C19.4052 28.3846 19.5639 27.7839 19.4784 27.1925Z" fill="#121217"/>
</g>
<defs>
<clipPath id="clip0_2799_3792">
<rect width="24" height="24" fill="white" transform="translate(12 12.5)"/>
</clipPath>
</defs>
</svg>
