<svg width="24" height="22" viewBox="0 0 24 22" fill="none" xmlns="http://www.w3.org/2000/svg">
<path d="M16 19.25V17.4167C16 16.4442 15.5786 15.5116 14.8284 14.8239C14.0783 14.1363 13.0609 13.75 12 13.75H5C3.93913 13.75 2.92172 14.1363 2.17157 14.8239C1.42143 15.5116 1 16.4442 1 17.4167V19.25M20 7.33333V12.8333M23 10.0833H17M12.5 6.41667C12.5 8.44171 10.7091 10.0833 8.5 10.0833C6.29086 10.0833 4.5 8.44171 4.5 6.41667C4.5 4.39162 6.29086 2.75 8.5 2.75C10.7091 2.75 12.5 4.39162 12.5 6.41667Z" stroke="#F4F4F4" stroke-width="2" stroke-linecap="round" stroke-linejoin="round"/>
</svg>
